<mxfile host="Electron" agent="Mozilla/5.0 (X11; Linux x86_64) AppleWebKit/537.36 (KHTML, like Gecko) draw.io/26.0.16 Chrome/132.0.6834.196 Electron/34.2.0 Safari/537.36" version="26.0.16">
  <diagram name="Page-1" id="HxTBjfSmha7EEJgLEsj0">
    <mxGraphModel dx="1434" dy="875" grid="1" gridSize="10" guides="1" tooltips="1" connect="1" arrows="1" fold="1" page="1" pageScale="1" pageWidth="850" pageHeight="1100" math="0" shadow="0">
      <root>
        <mxCell id="0" />
        <mxCell id="1" parent="0" />
        <mxCell id="o-Ofmj9kIsBwv4rzVH-R-1" value="User" style="shape=umlLifeline;perimeter=lifelinePerimeter;whiteSpace=wrap;html=1;container=1;dropTarget=0;collapsible=0;recursiveResize=0;outlineConnect=0;portConstraint=eastwest;newEdgeStyle={&quot;curved&quot;:0,&quot;rounded&quot;:0};" vertex="1" parent="1">
          <mxGeometry x="70" y="90" width="100" height="300" as="geometry" />
        </mxCell>
        <mxCell id="o-Ofmj9kIsBwv4rzVH-R-2" value="" style="html=1;points=[[0,0,0,0,5],[0,1,0,0,-5],[1,0,0,0,5],[1,1,0,0,-5]];perimeter=orthogonalPerimeter;outlineConnect=0;targetShapes=umlLifeline;portConstraint=eastwest;newEdgeStyle={&quot;curved&quot;:0,&quot;rounded&quot;:0};" vertex="1" parent="o-Ofmj9kIsBwv4rzVH-R-1">
          <mxGeometry x="45" y="50" width="10" height="230" as="geometry" />
        </mxCell>
        <mxCell id="o-Ofmj9kIsBwv4rzVH-R-4" value="Register Component" style="shape=umlLifeline;perimeter=lifelinePerimeter;whiteSpace=wrap;html=1;container=1;dropTarget=0;collapsible=0;recursiveResize=0;outlineConnect=0;portConstraint=eastwest;newEdgeStyle={&quot;curved&quot;:0,&quot;rounded&quot;:0};" vertex="1" parent="1">
          <mxGeometry x="290" y="90" width="100" height="300" as="geometry" />
        </mxCell>
        <mxCell id="o-Ofmj9kIsBwv4rzVH-R-5" value="" style="html=1;points=[[0,0,0,0,5],[0,1,0,0,-5],[1,0,0,0,5],[1,1,0,0,-5]];perimeter=orthogonalPerimeter;outlineConnect=0;targetShapes=umlLifeline;portConstraint=eastwest;newEdgeStyle={&quot;curved&quot;:0,&quot;rounded&quot;:0};" vertex="1" parent="o-Ofmj9kIsBwv4rzVH-R-4">
          <mxGeometry x="45" y="50" width="10" height="230" as="geometry" />
        </mxCell>
        <mxCell id="o-Ofmj9kIsBwv4rzVH-R-27" value="" style="html=1;points=[[0,0,0,0,5],[0,1,0,0,-5],[1,0,0,0,5],[1,1,0,0,-5]];perimeter=orthogonalPerimeter;outlineConnect=0;targetShapes=umlLifeline;portConstraint=eastwest;newEdgeStyle={&quot;curved&quot;:0,&quot;rounded&quot;:0};" vertex="1" parent="o-Ofmj9kIsBwv4rzVH-R-4">
          <mxGeometry x="45" y="70" width="10" height="40" as="geometry" />
        </mxCell>
        <mxCell id="o-Ofmj9kIsBwv4rzVH-R-28" value="Validating Credentials" style="html=1;align=left;spacingLeft=2;endArrow=block;rounded=0;edgeStyle=orthogonalEdgeStyle;curved=0;rounded=0;" edge="1" target="o-Ofmj9kIsBwv4rzVH-R-27" parent="o-Ofmj9kIsBwv4rzVH-R-4">
          <mxGeometry relative="1" as="geometry">
            <mxPoint x="50" y="50" as="sourcePoint" />
            <Array as="points">
              <mxPoint x="80" y="80" />
            </Array>
          </mxGeometry>
        </mxCell>
        <mxCell id="o-Ofmj9kIsBwv4rzVH-R-3" style="edgeStyle=orthogonalEdgeStyle;rounded=0;orthogonalLoop=1;jettySize=auto;html=1;curved=0;exitX=1;exitY=0;exitDx=0;exitDy=5;exitPerimeter=0;entryX=0;entryY=0;entryDx=0;entryDy=5;entryPerimeter=0;" edge="1" parent="1" source="o-Ofmj9kIsBwv4rzVH-R-2" target="o-Ofmj9kIsBwv4rzVH-R-5">
          <mxGeometry relative="1" as="geometry">
            <mxPoint x="230" y="145" as="targetPoint" />
          </mxGeometry>
        </mxCell>
        <mxCell id="o-Ofmj9kIsBwv4rzVH-R-6" value="Credentials" style="edgeLabel;html=1;align=center;verticalAlign=middle;resizable=0;points=[];" vertex="1" connectable="0" parent="o-Ofmj9kIsBwv4rzVH-R-3">
          <mxGeometry x="-0.0952" y="-1" relative="1" as="geometry">
            <mxPoint y="-16" as="offset" />
          </mxGeometry>
        </mxCell>
        <mxCell id="o-Ofmj9kIsBwv4rzVH-R-22" value="Authservice" style="shape=umlLifeline;perimeter=lifelinePerimeter;whiteSpace=wrap;html=1;container=1;dropTarget=0;collapsible=0;recursiveResize=0;outlineConnect=0;portConstraint=eastwest;newEdgeStyle={&quot;curved&quot;:0,&quot;rounded&quot;:0};" vertex="1" parent="1">
          <mxGeometry x="440" y="90" width="100" height="300" as="geometry" />
        </mxCell>
        <mxCell id="o-Ofmj9kIsBwv4rzVH-R-24" value="" style="html=1;points=[[0,0,0,0,5],[0,1,0,0,-5],[1,0,0,0,5],[1,1,0,0,-5]];perimeter=orthogonalPerimeter;outlineConnect=0;targetShapes=umlLifeline;portConstraint=eastwest;newEdgeStyle={&quot;curved&quot;:0,&quot;rounded&quot;:0};" vertex="1" parent="o-Ofmj9kIsBwv4rzVH-R-22">
          <mxGeometry x="45" y="50" width="10" height="230" as="geometry" />
        </mxCell>
        <mxCell id="o-Ofmj9kIsBwv4rzVH-R-34" value="" style="html=1;points=[[0,0,0,0,5],[0,1,0,0,-5],[1,0,0,0,5],[1,1,0,0,-5]];perimeter=orthogonalPerimeter;outlineConnect=0;targetShapes=umlLifeline;portConstraint=eastwest;newEdgeStyle={&quot;curved&quot;:0,&quot;rounded&quot;:0};" vertex="1" parent="o-Ofmj9kIsBwv4rzVH-R-22">
          <mxGeometry x="45" y="120" width="10" height="40" as="geometry" />
        </mxCell>
        <mxCell id="o-Ofmj9kIsBwv4rzVH-R-35" value="Validating Credentials" style="html=1;align=left;spacingLeft=2;endArrow=block;rounded=0;edgeStyle=orthogonalEdgeStyle;curved=0;rounded=0;" edge="1" target="o-Ofmj9kIsBwv4rzVH-R-34" parent="o-Ofmj9kIsBwv4rzVH-R-22">
          <mxGeometry relative="1" as="geometry">
            <mxPoint x="50" y="100" as="sourcePoint" />
            <Array as="points">
              <mxPoint x="80" y="130" />
            </Array>
          </mxGeometry>
        </mxCell>
        <mxCell id="o-Ofmj9kIsBwv4rzVH-R-33" value="Sending Credentials" style="html=1;verticalAlign=bottom;endArrow=block;curved=0;rounded=0;" edge="1" parent="1" target="o-Ofmj9kIsBwv4rzVH-R-22">
          <mxGeometry width="80" relative="1" as="geometry">
            <mxPoint x="340" y="210" as="sourcePoint" />
            <mxPoint x="420" y="210" as="targetPoint" />
          </mxGeometry>
        </mxCell>
        <mxCell id="o-Ofmj9kIsBwv4rzVH-R-36" value="MongoDB" style="shape=umlLifeline;perimeter=lifelinePerimeter;whiteSpace=wrap;html=1;container=1;dropTarget=0;collapsible=0;recursiveResize=0;outlineConnect=0;portConstraint=eastwest;newEdgeStyle={&quot;curved&quot;:0,&quot;rounded&quot;:0};" vertex="1" parent="1">
          <mxGeometry x="610" y="90" width="100" height="300" as="geometry" />
        </mxCell>
        <mxCell id="o-Ofmj9kIsBwv4rzVH-R-37" value="" style="html=1;points=[[0,0,0,0,5],[0,1,0,0,-5],[1,0,0,0,5],[1,1,0,0,-5]];perimeter=orthogonalPerimeter;outlineConnect=0;targetShapes=umlLifeline;portConstraint=eastwest;newEdgeStyle={&quot;curved&quot;:0,&quot;rounded&quot;:0};" vertex="1" parent="o-Ofmj9kIsBwv4rzVH-R-36">
          <mxGeometry x="45" y="50" width="10" height="240" as="geometry" />
        </mxCell>
        <mxCell id="o-Ofmj9kIsBwv4rzVH-R-39" value="Save Credentials in DB" style="html=1;verticalAlign=bottom;endArrow=block;curved=0;rounded=0;" edge="1" parent="1" target="o-Ofmj9kIsBwv4rzVH-R-36">
          <mxGeometry width="80" relative="1" as="geometry">
            <mxPoint x="490" y="280" as="sourcePoint" />
            <mxPoint x="570" y="280" as="targetPoint" />
          </mxGeometry>
        </mxCell>
        <mxCell id="o-Ofmj9kIsBwv4rzVH-R-40" value="Registration Success" style="html=1;verticalAlign=bottom;endArrow=open;dashed=1;endSize=8;curved=0;rounded=0;" edge="1" parent="1">
          <mxGeometry x="-0.1429" relative="1" as="geometry">
            <mxPoint x="480" y="340" as="sourcePoint" />
            <mxPoint x="340" y="340" as="targetPoint" />
            <mxPoint as="offset" />
          </mxGeometry>
        </mxCell>
        <mxCell id="o-Ofmj9kIsBwv4rzVH-R-41" value="Redirect to Login Screen" style="html=1;verticalAlign=bottom;endArrow=open;dashed=1;endSize=8;curved=0;rounded=0;" edge="1" parent="1" target="o-Ofmj9kIsBwv4rzVH-R-1">
          <mxGeometry relative="1" as="geometry">
            <mxPoint x="330" y="350" as="sourcePoint" />
            <mxPoint x="250" y="350" as="targetPoint" />
          </mxGeometry>
        </mxCell>
      </root>
    </mxGraphModel>
  </diagram>
</mxfile>
